<svg xmlns="http://www.w3.org/2000/svg" viewBox="0 0 372.87 412.46"><defs><style>.cls-1,.cls-2,.cls-3{fill:#fff;stroke:#fff;stroke-miterlimit:10;}.cls-1,.cls-2{fill-rule:evenodd;}.cls-2,.cls-3{stroke-width:0.75px;}.cls-3{font-size:45.35px;font-family:Georgia;}</style></defs><g id="Слой_2" data-name="Слой 2"><g id="Слой_1-2" data-name="Слой 1"><path class="cls-1" d="M269.2,252.73l59.32-.17.13,45.15-59.33.17-.12-45.15Zm-38-.25c7.72,0,14.25.32,22,.3l12.91,0,.12,45.15-34.89.1-.13-45.51Zm-27.9,7.19c0-1.24,12.72-9.28,13.24-9.28.8,0,1.05.25,1.05,1.07l.13,46.57-14.31,0-.11-38.4Zm-21.63.07c0-1.23,5.07-4.18,6.06-4.86s8.91-7.14,8.92-3.36l.13,46.57-15,0-.1-38.39ZM160,259.8c0-1.08,1-1.23,2.73-2.55,1.12-.85,2.12-1.47,3.33-2.3,4.91-3.36,5.16-4.43,8.57-4.44l.14,47.64-14.66,0L160,259.8Zm-56.9-6.24,9.08,0c9.58,0,18,.3,27.57.27l.12,44.44-36.64.11-.13-44.8Zm-59.32.17,56.18-.16.13,44.8-56.19.16-.12-44.8Zm59.3-8.34,36.64-.11v3.91l-36.64.11v-3.91Zm-66.65.54,63.51-.54v3.91l-63.51-.17v-3.2ZM231.14,245l103.29.06v3.2l-103.29-.06V245Zm-79.42,53.2-8.72,0-.17-62.57,85.14-.24.18,62.57-7.33,0-.14-51.55-69.1.2.14,51.55ZM269,196.56l59.33-.17,0,16.71c0,9.53.4,17.85.43,27.37l-59.67.17L269,196.56ZM43.62,197.92c2.43,0,3.4-.37,5.93-.38l50.25-.14.12,43.73-56.18.16-.12-43.37Zm177.69,27.22-.07-27.38,20.59-.06c8.43,0,15.66-.4,24.08-.42l.12,43.37-34.9-.25,0-9.25-10.12,0c0-2.48.34-3.47.33-6Zm-81.64,6.63,0,8.89-36.64.46-.12-43.73,44.67-.13.09,34.13-4.89,0c-1.75,0-1.56.32-3.14.36Zm23.73-.42-12.56,0-.09-34.13,67.35-.19.09,34.13-10.12,0L208,205.27l-12.21,0,.07,25.95H192L192,205.31l-12.22,0,.07,26h-4.18l-.07-25.95-12.22,0,.07,26ZM36.28,193.67v-3.55l297-.86v3.2l-280.56.81c-5.9,0-10.54.38-16.4.4Zm232.61-51.15,59.33-.17.12,43-59.33.17-.12-43Zm-166,17.9c0-1.48,9.6-7.76,10.74-8.62,1.84-1.39,3.56-2.65,5.48-4s3.75-2.79,5.71-4.13c1.38.36,17.76,11.53,20.21,13.16.85.57,2.52,1.3,2.52,2.41l.07,26.67-44.66.12-.07-25.59ZM43.46,143.17,99.65,143l.12,43-56.19.16-.12-43Zm107.25,41.64-.11-41.95,67-.19c0,2.25.35,3,.36,5.33l.1,37.68-66.3.19c-.8,0-1-.24-1-1.06Zm70.42-24.73c0-1,.42-.88,1.07-1.4,3.7-3,11.48-8.07,15.75-11.35l5.82-4,16.64,11.12c1.38.92,5.38,3,5.39,4.11l.07,26.66L221.2,185l-.07-24.88Zm119,137.6-7.67,0-.13-44.8a29.56,29.56,0,0,0,3.13,0c1.93-.3.77-.7,2.8-.71l0-11A2.53,2.53,0,0,1,337,241l-.26-.09-.24-.11c-.27-.09.24-.06-.77-.28a22.73,22.73,0,0,0-3.42-.06l-.12-44.08c2.85,0,2.5.2,4.88-.37l0-10.67h-4.88L332.09,153,352,153l.4,144.69-8,0L344,170.74c0-1.48-1.22-1.06-4.19-1.05l.35,128Zm-312.67.89-4.18,0-.41-144.7,17.45,0,.09,32.35c-9.29,0-7.33-2.24-7.3,10.34,0,2.13,3.51,1.41,7.33,1.4l.12,43.37H35.71c-1.35,0-.06.66-2.44.72l0,11c2.38,0,1.09.71,2.44.71l4.89,0,.12,44.8-9.07,0-.36-130.83-4.19,0,.36,130.82Zm223.61-156,14.65,0,0,9.95c-1.16-.31-14.26-9.32-14.68-9.91Zm-30,11.46c0-2-.36-2.45-.36-4.62l0-6.75,16,0c-.56.79-2.79,2.16-3.78,2.91L221.12,154Zm-89-11.12,15.36,0,0,10.31-14.81-9.78a3.75,3.75,0,0,1-.57-.49ZM102.82,154l0-11,15.35-.05-7.45,5.57c-1.41,1-2.45,1.82-3.84,2.85-1.08.8-3,2.38-4,2.65Zm20.54-15.35-87.24.25v-3.55c63.21-.18,125.42,0,188.44-.19,36.63-.1,72.43-.56,109.23-.67v3.56c-29.66.08-60.57.67-90.08.05-.93,0-.71.21-2.05.21l-118.3.34ZM268.8,107l57.57-.17c.81,0,1.05.25,1.05,1.07l.07,22.39-58.63.17L268.8,107ZM220.6,91.46l45-.13.11,39.11-45,.13-.1-39.11Zm-70.13,7.32,67-.2.09,32-67,.19-.09-32ZM43.72,108l55.83-.16.06,23.11-55.83.16L43.72,108Zm58.92-16.52c7.24.59,43.25.57,44.67-.13l.11,39.46-44.32.13-.46-39.46Zm122.12-8.18,37.34-.1v3.91l-37.34.11V83.27Zm-117.95.34,37-.1v3.91l-37,.1V83.61Zm-3.48,4.28H99.49l.05,16.36-59,.16.08,26.67-7.33,0,0,12.09,7,0,0,7.11-19.54.05c-.8,0-1.05.25-1,1.07l.4,147.19-12.91,0c-.46,1.77-6.15,6.8-6.6,8.55l371.29-1.06c-.79-1.2-8.15-8.51-9.09-8.51l-6.63,0-.41-148.25-23.73.07,0-7.11h4.18l0-12.09h-5.58l-.07-25.59c0-.82-.25-1.07-1.05-1.07l-60.72.18-.05-16.71H264.9l0-7.82-42.22.12c-1.75,0-1,3-1,7.82-5.18,0-4.19-1.17-4.17,6.77l-67,.19,0-6.4H147.3c0-4.9.71-8.17-1.07-8.17l-42.92.12,0,8.18Z"/><path class="cls-2" d="M22.35,336.88c7.09,0,13.59-3.05,17.43-8.22,1-1.32,2.72-3.58,3.12-5.35l1.32,2.56c7.63,12.31,23.39,14.3,34.15,5L80.05,329c1.16-1.29,2.92-3.68,3.33-5.48h.7c.7,3.06,4.91,7.25,7.24,9,8.27,6.15,20.18,5.19,27.62-1.66,2.09-1.92,4.62-4.56,5.27-7.43h.69c1.54,6.64,11.61,13.12,19.58,13.09,7.69,0,13.29-3.26,17.86-8.49a19.41,19.41,0,0,0,3-5.43l.73,1.4c.29.53.4.66.81,1.3a26.78,26.78,0,0,0,6,6.74c9.58,7.33,22.4,4.88,30.14-3.59a19.26,19.26,0,0,0,3.2-5.26,6.3,6.3,0,0,1,1.64,2.24l6.07,6.63a21.67,21.67,0,0,0,11.47,4.23h2.44a24.8,24.8,0,0,0,14.1-6l.74-.67.17-.19c1.67-1.79,3.63-4.2,4.2-6.73h.7c.87,3.75,4.53,7,7.3,9.27a19.12,19.12,0,0,0,10.87,4.18h2.92a23.51,23.51,0,0,0,17.73-10.29l1.66-2.57c.33,1.43,2.21,3.91,3.1,5,8.15,10.23,25.52,10.16,33.61-.1l3.42-5c.73,3.16,4.79,7.15,7.37,8.85,5.94,3.93,14.4,5.24,21.28,2.09a23.47,23.47,0,0,0,10.65-9.78c1-1.61,2.51-5.38,2.56-7.68h-3.14c-.08,4.24-4,9.43-6.44,11.56l-.56.49-3.92,2.41c-4.7,1.94-11,2.29-15.69,0a19.52,19.52,0,0,1-10.25-10.91c-.75-2-.17-1.37-.13-3.41h-3.84c.08,3.38.47,2.89-1.48,6.3-4.78,8.33-15.23,12.33-24,8.35a19.66,19.66,0,0,1-10.62-10.88c-.93-2.34-.28-1.35-.23-3.66h-3.84c.08,3.42.49,2.92-1.49,6.29A17.71,17.71,0,0,1,281,328a26.24,26.24,0,0,1-5.1,3.34,19.6,19.6,0,0,1-24.6-8,18.09,18.09,0,0,1-2.17-6.33h-3.49c0,4.55-3.81,9.35-6.4,11.59a19.41,19.41,0,0,1-20.67,2.59,18.6,18.6,0,0,1-9.32-9.71c-1.93-4.6,0-4.15-2-4.39-.49-.06-1.88,0-2.47,0,0,8.21-9.76,16-17.75,16.05-5.45,0-10.42-1.51-13.94-5l-1-1.1c-.41-.45-.63-.63-1-1.1a19.66,19.66,0,0,1-4-8.77H164c-1.56,3.33-.27,3.69-3.95,8.76-6.45,8.84-19.93,9.57-27.86,2.44-2.48-2.24-5.86-6.54-5.88-11.09h-3.49c0,4.52-3,8.31-5.8,11.13-6.44,6.36-19.19,6.44-25.67.08-2.36-2.32-5.85-6.65-5.87-11.1H82c0,3.86-1.82,6.29-3.73,9-6.27,8.8-20,9.15-27.73,2.22-2.32-2.08-5.86-6.87-5.87-11.09-.63,0-1.59-.06-2.16,0-2.4.14-.21,0-2.13,4.2-4.66,10.18-14.76,14.36-25,10.55-5.35-2-11.35-8.46-11.5-14.6H.66C.86,326.18,10.69,336.91,22.35,336.88Z"/><path class="cls-2" d="M150.93,42.28c0-4,.53-6,2.48-8.79,1.51-2.19,3.68-3.41,5.86-4.85L168,33.06c5.85,3.23,5.62,6,5.63,10.86s-5.07,9.21-10.09,9.22h-2.44c-5.9,0-10.14-5-10.16-10.87Zm11-41.89h3.6c6.17.51,11.67,3.81,12.34,10.36A12,12,0,0,1,175,19.16c-1.28,1.4-4.83,4.54-6.7,5v.69c2,.44,6.78,3.58,8.3,4.83,4.17,3.44,4.53,10.83,1.66,16.36C170.18,61.68,145.05,58.44,145,42.3c0-7.16,6.29-13.48,10.78-14.67-2.4-3.47-8.73-2.68-8.77-14.27,0-7.74,7.37-12.32,14.93-13ZM153.29,12c0-8.93,11-11.39,16.48-5.93,3.11,3.12,3.1,9.17.35,13.09-1,1.42-4.07,4-4.58,4-1.28,0-12.23-3.64-12.25-11.2Z"/><path class="cls-2" d="M190.51,12.26c.71,1.28.32,13.76.32,16.27,3.66,0,2.52,0,2.94-3.27.64-5.07.12-6.29,2.92-6.67a32.45,32.45,0,0,1,4.58-.31c6.51,0,12.13-.37,18.85-.39-.17,2.06-5.52,10.32-6.6,12.28l-7.23,12C202.7,48,197.23,57.43,193.43,63c-1.07,1.58-1.21,1.51-.39,3,2-.16,5.77-.9,7.67,0a53.63,53.63,0,0,1,2.89-7l10-20.57c1.12-2.21,2.32-4.21,3.47-6.47.63-1.25,1.14-2.06,1.84-3.3s1-2.17,1.77-3.38c1.35-2.2,2.51-4.42,3.67-6.62.58-1.11,1.17-2,1.87-3.28,1.15-2,.91-1.22.91-4.21-3.12.71-33.69,1-35.6.1l-1,1.09Z"/><path class="cls-1" d="M117.79,268.81l.06,22,18.5-.05-.06-20.62c0-13.21-11-14.07-16.17-8.59-1.59,1.68-2.34,4.07-2.33,7.22Z"/><path class="cls-1" d="M234.34,266.34l.07,24.17,18.14-.05c0-4.68.58-23.45-.76-26.66l-1.44-2.46c-5.81-6.61-16-2.21-16,5Z"/><path class="cls-1" d="M117.49,160.38l.07,23.1,18.14,0L135.64,160c0-11.55-18.18-12.28-18.15.41Z"/><path class="cls-1" d="M234.74,160l.07,23.11,18.14-.06-.06-23.46c0-11.72-18.18-12.11-18.15.41Z"/><path class="cls-1" d="M234.54,212.3l.06,22.75,18.15-.05-.07-23.82c0-7-9.73-11.63-15.47-5.75a9.66,9.66,0,0,0-2.67,6.87Z"/><path class="cls-1" d="M117.64,212.28l.06,23.11,18.15,0-.07-23.11a9.21,9.21,0,0,0-5.15-8.27,9,9,0,0,0-13,8.32Z"/><path class="cls-1" d="M117.34,105.63l.06,22,18.15,0-.07-24.53c0-2.94-3.92-7.46-8-7.45-3.07,0-5.66.08-7.88,3a9.74,9.74,0,0,0-2.21,7Z"/><path class="cls-1" d="M234.65,127.69c1.41-.81,15.45-.4,18.15-.41l-.06-23.11c0-5-4-8.88-8.06-8.86-8,0-10.11,3.86-10.08,11.76q0,10.31.05,20.62Z"/><path class="cls-2" d="M106.45,20.32l.36,3.65c1.9-.12,10.65-4.4,13.94-4.46,0,2,.38,2.9.37,4.95,0,1.82,0,3.64,0,5.46l-.61,20.83c-.41,3.12-1.74,3.38-10.12,3.4v2.08c3.11,0,4.85-.27,8-.27l11.16,0c3.4,0,5.39.25,8.73.24V54.09c-10.3,0-9.55-.46-10.29-4.28-.42-2.14.38-31.21.37-35.26-2.07-.35-1.85.13-5,1.23s-14.42,4.5-17,4.54Z"/><path class="cls-2" d="M230.92,20.42l.36,3.64c1-.07,8.27-2.91,10-3.47a12.54,12.54,0,0,1,3.93-1c0,1.9.37,2.88.37,4.93l-.29,15.84A82.18,82.18,0,0,1,245,50.79c-.43,3.15-2.06,3.35-10.15,3.37v2.07c3.12,0,4.85-.27,8-.27l11.16,0c3.4,0,5.39.25,8.73.24V54.1c-10.29,0-9.55-.46-10.29-4.28-.43-2.21.39-31,.37-35.15-2.07-.36-1.85.13-5,1.22s-14.42,4.49-17,4.53Z"/><polygon class="cls-1" points="66.4 235.54 78.97 235.5 78.88 205.64 66.32 205.67 66.4 235.54 66.4 235.54"/><polygon class="cls-1" points="82.45 235.49 95.02 235.45 94.94 205.59 82.37 205.63 82.45 235.49 82.45 235.49"/><polygon class="cls-1" points="291.99 290.35 304.55 290.31 304.47 260.45 291.9 260.49 291.99 290.35 291.99 290.35"/><polygon class="cls-1" points="308.04 290.3 320.6 290.27 320.52 260.4 307.96 260.44 308.04 290.3 308.04 290.3"/><polygon class="cls-1" points="308.93 234.84 321.49 234.8 321.41 204.94 308.85 204.98 308.93 234.84 308.93 234.84"/><polygon class="cls-1" points="308.79 182.58 321.35 182.54 321.27 152.68 308.7 152.72 308.79 182.58 308.79 182.58"/><polygon class="cls-1" points="292.74 182.62 305.3 182.59 305.21 152.72 292.65 152.76 292.74 182.62 292.74 182.62"/><polygon class="cls-1" points="292.88 234.88 305.44 234.85 305.36 204.99 292.8 205.02 292.88 234.88 292.88 234.88"/><polygon class="cls-1" points="50 235.58 62.56 235.55 62.48 205.68 49.92 205.72 50 235.58 50 235.58"/><path class="cls-1" d="M195.37,182.9l12.57,0-.08-28.8c0-.82-.25-1.06-1.05-1.06l-11.52,0,.08,29.86Z"/><path class="cls-1" d="M179.32,183l12.56,0-.08-28.79c0-.82-.24-1.07-1.05-1.07l-11.51,0,.08,29.86Z"/><path class="cls-1" d="M48.73,154.53l.08,28.8,12.56,0-.08-29.86-11.52,0c-.8,0-1,.25-1,1.07Z"/><polygon class="cls-1" points="81.61 183.23 93.83 183.2 93.74 153.33 81.53 153.37 81.61 183.23 81.61 183.23"/><polygon class="cls-1" points="66.21 291 78.42 290.96 78.34 261.1 66.12 261.13 66.21 291 66.21 291"/><polygon class="cls-1" points="65.56 183.28 77.77 183.24 77.69 153.38 65.48 153.41 65.56 183.28 65.56 183.28"/><polygon class="cls-1" points="49.81 291.05 62.02 291.01 61.94 261.15 49.72 261.18 49.81 291.05 49.81 291.05"/><polygon class="cls-1" points="82.26 290.95 94.47 290.92 94.39 261.05 82.18 261.09 82.26 290.95 82.26 290.95"/><polygon class="cls-1" points="275.58 290.39 287.8 290.36 287.72 260.5 275.5 260.53 275.58 290.39 275.58 290.39"/><polygon class="cls-1" points="276.48 234.93 288.69 234.9 288.61 205.03 276.4 205.07 276.48 234.93 276.48 234.93"/><polygon class="cls-1" points="162.92 183 175.13 182.96 175.05 153.1 162.84 153.13 162.92 183 162.92 183"/><polygon class="cls-1" points="276.33 182.67 288.55 182.64 288.46 152.77 276.25 152.81 276.33 182.67 276.33 182.67"/><polygon class="cls-1" points="179.17 127.14 191.73 127.1 191.67 106.83 179.11 106.87 179.17 127.14 179.17 127.14"/><polygon class="cls-1" points="195.22 127.09 207.78 127.05 207.73 106.79 195.16 106.82 195.22 127.09 195.22 127.09"/><path class="cls-1" d="M162.77,127.54c.42-.25.37-.36,1-.36l11.17,0-.06-20.27-12.21,0,.06,20.62Z"/><path class="cls-1" d="M49,114.71l0,13.15,15.36,0,0-13.15c0-.82-.24-1.07-1-1.07l-13.26,0c-.8,0-1,.25-1,1.07Z"/><path class="cls-1" d="M79.68,114.62l0,13.16,15.36,0,0-13.15c0-.82-.24-1.07-1-1.07l-13.26,0c-.8,0-1,.25-1,1.07Z"/><path class="cls-1" d="M306.19,127.13l14,0c1.33,0,.13-.1,1.05.36l0-14.58-15,0,0,14.23Z"/><path class="cls-1" d="M275.48,127.57c1.36-.78,11.65-.39,14-.4,1.33,0,.13-.11,1.05.36l0-14.58-15,0,0,14.58Z"/><text class="cls-3" transform="translate(12.79 382.75) scale(1.03 1)">ИнБЮМ – IBSS</text></g></g></svg>