<svg xmlns="http://www.w3.org/2000/svg" viewBox="0 0 371.3 401"><defs><style>.cls-1,.cls-2{fill:#336b9f;}.cls-1{fill-rule:evenodd;}.cls-2{font-size:45.35px;font-family:Georgia;}</style></defs><g id="Слой_2" data-name="Слой 2"><g id="Слой_1-2" data-name="Слой 1"><path class="cls-1" d="M268.55,244.68l59.33-.17.12,44.32-59.32.16-.13-44.31Zm-38-.25c7.72,0,14.26.31,22,.29l12.91,0,.13,44.32-34.9.1-.13-44.67Zm-27.89,7.06c0-1.22,12.72-9.11,13.23-9.11.81,0,1.05.24,1.05,1.05l.13,45.71-14.31,0-.1-37.69Zm-21.64.06c0-1.2,5.08-4.1,6.06-4.76s8.91-7,8.92-3.3l.13,45.71-15,0L181,251.55Zm-21.63.06c0-1.06,1-1.2,2.73-2.5,1.11-.83,2.11-1.44,3.32-2.26,4.92-3.29,5.16-4.34,8.58-4.35l.13,46.76-14.66,0-.1-37.69Zm-56.9-6.12,9.07,0c9.59,0,18,.3,27.57.27l.12,43.62-36.64.1-.12-44Zm-59.33.17,56.19-.16.12,44-56.18.16-.13-44Zm59.3-8.19,36.65-.11v3.84l-36.64.11,0-3.84ZM35.77,238l63.51-.52v3.83l-63.51-.16V238Zm194.72-.89,103.3,0v3.14l-103.3-.05v-3.14Zm-79.41,52.22-8.73,0-.17-61.42,85.15-.24.17,61.42-7.33,0-.14-50.6-69.1.2.15,50.6ZM268.4,189.54l59.32-.17,0,16.4c0,9.36.4,17.53.42,26.87l-59.67.17-.12-43.27ZM43,190.87c2.44,0,3.4-.35,5.93-.36l50.25-.14.12,42.92-56.18.16L43,190.87Zm177.7,26.72-.08-26.87,20.59-.06c8.43,0,15.67-.39,24.08-.41l.12,42.57-34.9-.25,0-9.07-10.12,0c0-2.44.33-3.41.33-5.94ZM139,224.1l0,8.73-36.64.45-.12-42.92,44.67-.13.09,33.5-4.88,0c-1.75,0-1.56.31-3.14.35Zm23.73-.41-12.57,0-.09-33.5,67.35-.19.09,33.5-10.12,0-.07-25.47-12.21,0,.07,25.48h-3.84l-.07-25.48-12.21,0,.07,25.47H175l-.07-25.47-12.21,0,.07,25.48Zm-127.13-37v-3.49l297-.84v3.14L52,186.31c-5.89,0-10.53.38-16.4.4ZM268.25,136.5l59.32-.17.12,42.22-59.32.17-.12-42.22ZM102.19,154.07c0-1.46,9.6-7.62,10.74-8.46,1.84-1.37,3.56-2.61,5.49-3.94s3.75-2.75,5.71-4.07c1.37.36,17.75,11.32,20.21,12.93.85.55,2.51,1.27,2.51,2.36l.08,26.17-44.67.13-.07-25.12ZM42.82,137.13,99,137l.12,42.22-56.18.16-.12-42.23ZM150.07,178,150,136.83l67-.19c0,2.22.36,2.91.36,5.24l.11,37-66.3.18c-.81,0-1.05-.24-1.05-1Zm70.42-24.28c0-1,.42-.86,1.07-1.37,3.7-2.92,11.47-7.93,15.74-11.14l5.82-3.95,16.64,10.91c1.38.9,5.39,2.92,5.39,4l.08,26.17-44.67-.22-.07-24.43Zm119,135.06-7.68,0-.12-44c.82,0,2.38.08,3.12,0,1.93-.29.77-.68,2.81-.69l0-10.82a2.58,2.58,0,0,1-1.25-.15l-.25-.09a1.86,1.86,0,0,1-.25-.1c-.26-.09.24-.06-.77-.28a24.13,24.13,0,0,0-3.42-.06l-.12-43.27c2.86,0,2.5.2,4.88-.36l0-10.47h-4.88l-.09-31.75,19.89-.06.4,142-8,0-.36-124.58c0-1.45-1.21-1-4.19-1l.36,125.62Zm-312.67.89H22.66l-.4-142,17.45,0,.09,31.76c-9.3,0-7.34-2.21-7.3,10.14,0,2.09,3.51,1.38,7.33,1.37L40,233.46H35.06c-1.35,0-.06.65-2.44.7l0,10.82c2.38,0,1.09.7,2.45.69H40l.13,44-9.08,0-.36-128.41H26.48l.37,128.42Zm223.6-153.13,14.66,0,0,9.77c-1.16-.31-14.25-9.15-14.68-9.73Zm-30,11.25c0-2-.35-2.41-.36-4.54l0-6.63,16,0c-.56.77-2.79,2.12-3.78,2.85l-11.89,8.36Zm-89-10.92,15.36,0,0,10.12L132,137.36a4.44,4.44,0,0,1-.58-.48Zm-29.28,10.9,0-10.81,15.36-.05L110,142.39c-1.4,1-2.45,1.78-3.84,2.79-1.08.79-3,2.34-4,2.6Zm20.55-15.06L35.48,133v-3.49c63.2-.18,125.41,0,188.44-.19,36.63-.1,72.42-.55,109.22-.65v3.49c-29.66.08-60.57.65-90.07.05-.94,0-.72.2-2,.21l-118.3.33ZM268.15,101.6l57.58-.16c.8,0,1,.24,1,1l.06,22-58.63.16-.06-23ZM220,86.38l45-.12.11,38.38-45,.13L220,86.38Zm-70.12,7.18,67-.19.09,31.41-67,.19-.09-31.41Zm-106.76,9,55.83-.16L99,125.11l-55.84.16-.06-22.68ZM102,86.37c7.24.58,43.25.56,44.67-.13l.1,38.74-44.31.12L102,86.37Zm122.11-8,37.34-.1v3.84l-37.34.1V78.34Zm-118,.34,37-.11v3.84l-37,.11V78.68Zm-3.47,4.19-3.84,0,0,16-59,.16L40,125.28l-7.33,0,0,11.86,7,0,0,7-19.55.06c-.8,0-1,.24-1,1l.41,144.47-12.91,0c-.46,1.74-6.16,6.68-6.61,8.4l371.3-1.05c-.79-1.17-8.15-8.35-9.1-8.35l-6.63,0-.41-145.52-23.73.07,0-7h4.19l0-11.87-5.58,0-.07-25.13c0-.8-.25-1-1.05-1l-60.72.17-.05-16.4h-3.83l0-7.68L222,74.51c-1.75,0-1,3-1,7.68-5.18,0-4.19-1.15-4.17,6.64l-67,.19V82.74h-3.14c0-4.82.7-8-1.07-8l-42.93.12,0,8Z"/><path class="cls-1" d="M21.7,320.4c7.09,0,13.6-3,17.43-8.07,1-1.29,2.72-3.5,3.12-5.25l1.33,2.52c7.62,12.08,23.38,14,34.15,4.92l1.67-1.82a14.93,14.93,0,0,0,3.33-5.38h.7c.71,3,4.91,7.11,7.24,8.82,8.27,6,20.19,5.09,27.63-1.63,2.08-1.89,4.61-4.48,5.26-7.3h.7c1.54,6.52,11.61,12.88,19.58,12.86,7.68,0,13.28-3.21,17.86-8.34a19.36,19.36,0,0,0,3-5.33l.72,1.37a13.79,13.79,0,0,0,.82,1.27,26,26,0,0,0,5.95,6.62c9.57,7.2,22.39,4.79,30.13-3.52a18.91,18.91,0,0,0,3.21-5.16,6.28,6.28,0,0,1,1.64,2.2l6.06,6.5a22,22,0,0,0,11.47,4.16h2.44A25.11,25.11,0,0,0,241.29,314l.73-.66.17-.17c1.67-1.76,3.63-4.14,4.2-6.61h.7c.87,3.68,4.53,6.92,7.3,9.11a19.45,19.45,0,0,0,10.88,4.1h2.91a23.56,23.56,0,0,0,17.73-10.09l1.66-2.52c.33,1.4,2.21,3.83,3.1,4.93,8.15,10,25.52,10,33.61-.1L327.7,307c.74,3.11,4.8,7,7.37,8.69,5.94,3.86,14.4,5.15,21.28,2A23.23,23.23,0,0,0,367,308.12c.95-1.58,2.52-5.29,2.56-7.55h-3.14c-.08,4.17-4,9.26-6.43,11.35l-.57.49-3.91,2.36c-4.71,1.9-11,2.25-15.69,0A19.33,19.33,0,0,1,329.56,304c-.75-1.93-.17-1.34-.13-3.34h-3.84c.09,3.31.48,2.83-1.48,6.18-4.77,8.17-15.22,12.1-23.95,8.2a19.49,19.49,0,0,1-10.62-10.68c-.94-2.3-.28-1.33-.24-3.6h-3.84c.09,3.36.5,2.87-1.48,6.18a17.62,17.62,0,0,1-3.63,4.74,26.55,26.55,0,0,1-5.11,3.28,19.81,19.81,0,0,1-24.6-7.88,17.64,17.64,0,0,1-2.17-6.21H245c0,4.46-3.8,9.18-6.4,11.38a19.71,19.71,0,0,1-20.67,2.54,18.35,18.35,0,0,1-9.31-9.53c-1.93-4.52,0-4.07-2-4.31-.49-.06-1.88,0-2.47,0,0,8-9.75,15.73-17.75,15.75-5.45,0-10.42-1.48-13.94-4.87l-1-1.09c-.4-.44-.62-.61-1-1.07a19.09,19.09,0,0,1-4-8.61h-3.15c-1.55,3.27-.26,3.62-3.95,8.59-6.44,8.68-19.93,9.4-27.86,2.4-2.48-2.19-5.86-6.42-5.87-10.89h-3.49c0,4.44-3,8.16-5.81,10.93-6.44,6.24-19.18,6.32-25.66.07-2.37-2.27-5.86-6.52-5.87-10.89H81.32c0,3.79-1.83,6.18-3.74,8.81-6.26,8.63-20,9-27.72,2.18-2.33-2.05-5.87-6.75-5.88-10.89-.63,0-1.59-.06-2.16,0-2.4.14-.21,0-2.13,4.12-4.66,10-14.76,14.1-25,10.36C9.3,314,3.3,307.63,3.15,301.61H0c.21,8.28,10,18.81,21.69,18.78Z"/><path class="cls-1" d="M148.29,43c0-4.1.52-6.11,2.48-9,1.5-2.24,3.67-3.5,5.85-5l8.73,4.53c5.85,3.31,5.61,6.14,5.63,11.13s-5.08,9.44-10.1,9.46h-2.44c-5.9,0-10.14-5.12-10.15-11.14ZM159.29,0h3.61c6.17.53,11.66,3.91,12.33,10.63a12.48,12.48,0,0,1-2.84,8.62c-1.28,1.44-4.83,4.66-6.71,5.17v.7c2,.46,6.77,3.67,8.29,4.95,4.17,3.53,4.54,11.11,1.66,16.78-8.11,16-33.24,12.67-33.28-3.87,0-7.34,6.28-13.82,10.77-15-2.4-3.56-8.73-2.74-8.76-14.63,0-7.93,7.36-12.63,14.92-13.3ZM150.64,11.9c0-9.16,11-11.68,16.49-6.08,3.11,3.2,3.09,9.4.34,13.42-1,1.46-4.07,4.14-4.58,4.14-1.28,0-12.22-3.73-12.25-11.48Z"/><path class="cls-1" d="M191.87,1.39c.71,1.31.31,14.1.32,16.67,3.66,0,2.52,0,2.93-3.34.65-5.2.12-6.45,2.92-6.84a30.92,30.92,0,0,1,4.58-.32c6.51,0,12.13-.38,18.85-.4-.17,2.11-5.52,10.58-6.59,12.58L207.65,32c-3.6,6-9.06,15.66-12.86,21.33-1.08,1.61-1.22,1.54-.4,3.07,2-.17,5.77-.93,7.68,0A54.88,54.88,0,0,1,205,49.2l9.94-21.08c1.12-2.27,2.32-4.32,3.47-6.64.63-1.29,1.14-2.11,1.85-3.38s1-2.22,1.77-3.46c1.34-2.26,2.5-4.54,3.67-6.8.58-1.13,1.17-2.1,1.86-3.36,1.16-2.1.92-1.25.91-4.32-3.11.74-33.69,1-35.59.1l-1,1.13Z"/><path class="cls-1" d="M117.15,260.46l.06,21.63,18.49,0-.06-20.24c0-13-11-13.81-16.17-8.43-1.59,1.65-2.33,4-2.32,7.09Z"/><path class="cls-1" d="M233.69,258l.07,23.72,18.15-.05c0-4.59.57-23-.77-26.17l-1.43-2.41c-5.81-6.49-16-2.17-16,4.91Z"/><path class="cls-1" d="M116.85,154l.06,22.69,18.15-.05-.07-23c0-11.33-18.18-12.05-18.14.4Z"/><path class="cls-1" d="M234.1,153.69l.06,22.69,18.15-.06-.07-23c0-11.5-18.18-11.88-18.14.4Z"/><path class="cls-1" d="M233.89,205l.07,22.34,18.14-.06L252,203.89c0-6.87-9.74-11.41-15.48-5.64a9.43,9.43,0,0,0-2.67,6.74Z"/><path class="cls-1" d="M117,205l.06,22.69,18.15-.06-.06-22.68a9,9,0,0,0-5.16-8.11c-6.84-2.88-13,1.94-13,8.16Z"/><path class="cls-1" d="M116.69,100.28l.07,21.64,18.14,0-.07-24.08c0-2.88-3.92-7.32-8-7.31-3.07,0-5.67.08-7.88,3a9.38,9.38,0,0,0-2.22,6.84Z"/><path class="cls-1" d="M234,121.94c1.4-.79,15.44-.4,18.14-.4l-.06-22.69c0-4.94-4-8.71-8.05-8.7-8,0-10.12,3.8-10.09,11.55q0,10.11.06,20.24Z"/><path class="cls-1" d="M94.8,8.57l.36,4.88c1.9-.16,10.65-5.89,13.94-6,0,2.67.38,3.89.37,6.63,0,2.44,0,4.89,0,7.33l-.61,27.92c-.41,4.19-1.73,4.54-10.11,4.56v2.79c3.12,0,4.86-.36,8-.37l11.17,0c3.39,0,5.38.33,8.72.32V53.84c-10.29,0-9.54-.61-10.29-5.74-.42-2.86.39-41.84.37-47.27-2.06-.48-1.85.17-5,1.64s-14.43,6-17,6.1Z"/><path class="cls-1" d="M239.27,8.16l.36,4.88c1-.08,8.28-3.9,10-4.66a10.21,10.21,0,0,1,3.93-1.31c0,2.55.38,3.86.37,6.63L253.65,35c0,4.74.15,9.79-.27,14s-2.06,4.51-10.14,4.53v2.8c3.12,0,4.86-.37,8-.38l11.17,0c3.39,0,5.38.34,8.72.33V53.44c-10.29,0-9.54-.62-10.29-5.75-.43-3,.39-41.68.37-47.27-2.06-.47-1.85.17-5,1.65s-14.43,6-17,6.09Z"/><polygon class="cls-1" points="65.76 227.8 78.32 227.76 78.24 198.45 65.67 198.49 65.76 227.8 65.76 227.8"/><polygon class="cls-1" points="81.81 227.75 94.37 227.72 94.29 198.41 81.73 198.44 81.81 227.75 81.81 227.75"/><polygon class="cls-1" points="291.34 281.6 303.9 281.57 303.82 252.25 291.26 252.29 291.34 281.6 291.34 281.6"/><polygon class="cls-1" points="307.39 281.56 319.95 281.52 319.87 252.21 307.31 252.24 307.39 281.56 307.39 281.56"/><polygon class="cls-1" points="308.29 227.12 320.85 227.08 320.76 197.77 308.2 197.8 308.29 227.12 308.29 227.12"/><polygon class="cls-1" points="308.14 175.82 320.7 175.78 320.62 146.47 308.06 146.5 308.14 175.82 308.14 175.82"/><polygon class="cls-1" points="292.09 175.86 304.65 175.83 304.57 146.51 292 146.55 292.09 175.86 292.09 175.86"/><polygon class="cls-1" points="292.23 227.16 304.8 227.13 304.71 197.81 292.15 197.85 292.23 227.16 292.23 227.16"/><polygon class="cls-1" points="49.35 227.85 61.92 227.81 61.84 198.5 49.27 198.53 49.35 227.85 49.35 227.85"/><path class="cls-1" d="M194.73,176.14l12.56,0-.08-28.26c0-.81-.25-1.05-1.05-1.05l-11.52,0,.09,29.31Z"/><path class="cls-1" d="M178.68,176.18l12.56,0-.08-28.27c0-.8-.25-1-1-1l-11.52,0,.09,29.31Z"/><path class="cls-1" d="M48.08,148.29l.08,28.26,12.57,0-.09-29.32-11.51,0c-.81,0-1.05.24-1.05,1Z"/><polygon class="cls-1" points="80.97 176.46 93.18 176.43 93.1 147.11 80.88 147.15 80.97 176.46 80.97 176.46"/><polygon class="cls-1" points="65.56 282.24 77.77 282.2 77.69 252.89 65.48 252.93 65.56 282.24 65.56 282.24"/><polygon class="cls-1" points="64.91 176.5 77.13 176.47 77.04 147.16 64.83 147.19 64.91 176.5 64.91 176.5"/><polygon class="cls-1" points="49.16 282.29 61.37 282.25 61.29 252.94 49.08 252.97 49.16 282.29 49.16 282.29"/><polygon class="cls-1" points="81.61 282.19 93.83 282.16 93.74 252.85 81.53 252.88 81.61 282.19 81.61 282.19"/><polygon class="cls-1" points="274.94 281.65 287.15 281.61 287.07 252.3 274.86 252.34 274.94 281.65 274.94 281.65"/><polygon class="cls-1" points="275.83 227.21 288.05 227.17 287.96 197.86 275.75 197.89 275.83 227.21 275.83 227.21"/><polygon class="cls-1" points="162.27 176.23 174.49 176.19 174.41 146.88 162.19 146.92 162.27 176.23 162.27 176.23"/><polygon class="cls-1" points="275.69 175.91 287.9 175.88 287.82 146.56 275.6 146.6 275.69 175.91 275.69 175.91"/><polygon class="cls-1" points="178.52 121.4 191.08 121.36 191.03 101.47 178.46 101.5 178.52 121.4 178.52 121.4"/><polygon class="cls-1" points="194.57 121.35 207.14 121.31 207.08 101.42 194.52 101.46 194.57 121.35 194.57 121.35"/><path class="cls-1" d="M162.12,121.79c.43-.24.37-.35,1-.35l11.16,0-.05-19.89-12.22,0,.06,20.24Z"/><path class="cls-1" d="M48.32,109.2l0,12.91,15.35,0,0-12.91c0-.81-.25-1-1-1l-13.26,0c-.81,0-1,.25-1,1Z"/><path class="cls-1" d="M79,109.11l0,12.92,15.35,0,0-12.91c0-.8-.24-1-1-1l-13.26,0c-.8,0-1,.25-1,1Z"/><path class="cls-1" d="M305.54,121.39l14,0c1.34,0,.13-.11,1.05.34l0-14.3-15,0,0,14Z"/><path class="cls-1" d="M274.84,121.82c1.36-.77,11.64-.38,14-.39,1.34,0,.13-.1,1,.35l0-14.31-15,0,0,14.31Z"/><text class="cls-2" transform="translate(12.14 371.29) scale(1.03 1)">ИнБЮМ – IBSS</text></g></g></svg>