<svg xmlns="http://www.w3.org/2000/svg" viewBox="0 0 371.67 412.46"><defs><style>.cls-1,.cls-2{fill-rule:evenodd;}.cls-2,.cls-3{stroke:#1d1d1b;stroke-miterlimit:10;stroke-width:0.75px;}.cls-3{font-size:45.35px;font-family:Georgia;}</style></defs><g id="Слой_2" data-name="Слой 2"><g id="Слой_1-2" data-name="Слой 1"><path class="cls-1" d="M268.93,252.73l59.32-.17.13,45.15-59.33.17-.12-45.15Zm-38-.25c7.72,0,14.25.32,22,.3l12.92,0,.12,45.15L231,298l-.13-45.51ZM203,259.67c0-1.24,12.72-9.28,13.24-9.28.8,0,1,.25,1.05,1.07l.13,46.57-14.31,0-.11-38.4Zm-21.63.07c0-1.23,5.07-4.18,6.06-4.86s8.91-7.14,8.92-3.36l.13,46.57-15,0-.1-38.39Zm-21.64.06c0-1.08,1-1.23,2.73-2.55,1.12-.85,2.11-1.47,3.33-2.3,4.91-3.36,5.16-4.43,8.57-4.44l.13,47.64-14.65,0-.11-38.39Zm-56.9-6.24,9.07,0c9.59,0,18,.3,27.57.27l.13,44.44-36.64.11-.13-44.8Zm-59.32.17,56.18-.16.12,44.8-56.18.16-.12-44.8Zm59.3-8.34,36.64-.11v3.91l-36.64.11v-3.91Zm-66.65.54,63.51-.54v3.91l-63.51-.17v-3.2ZM230.87,245l103.29.06v3.2l-103.29-.06V245Zm-79.42,53.2-8.72,0-.18-62.57,85.15-.24.17,62.57-7.32,0-.15-51.55-69.09.2.14,51.55ZM268.77,196.56l59.33-.17,0,16.71c0,9.53.4,17.85.43,27.37l-59.68.17-.12-44.08ZM43.34,197.92c2.44,0,3.41-.37,5.93-.38l50.26-.14.12,43.73-56.19.16-.12-43.37ZM221,225.14,221,197.76l20.59-.06c8.42,0,15.66-.4,24.07-.42l.12,43.37-34.89-.25,0-9.25-10.12,0c0-2.48.34-3.47.33-6Zm-81.64,6.63,0,8.89-36.64.46-.12-43.73,44.66-.13.1,34.13-4.89,0c-1.75,0-1.56.32-3.14.36Zm23.73-.42-12.56,0-.1-34.13,67.35-.19.1,34.13-10.12,0-.07-25.95-12.22,0,.07,25.95h-3.83l-.08-25.95-12.21,0,.07,26h-4.19l-.07-25.95-12.21,0,.07,26ZM36,193.67v-3.55l297-.86v3.2l-280.57.81c-5.89,0-10.53.38-16.4.4Zm232.62-51.15,59.33-.17.11,43-59.32.17-.12-43Zm-166.06,17.9c0-1.48,9.61-7.76,10.74-8.62,1.84-1.39,3.57-2.65,5.49-4s3.75-2.79,5.71-4.13c1.38.36,17.76,11.53,20.21,13.16.85.57,2.51,1.3,2.52,2.41l.07,26.67-44.67.12-.07-25.59ZM43.19,143.17,99.37,143l.12,43-56.18.16-.12-43Zm107.25,41.64-.12-41.95,67-.19c0,2.25.36,3,.37,5.33l.1,37.68-66.3.19c-.8,0-1.05-.24-1.05-1.06Zm70.42-24.73c0-1,.42-.88,1.07-1.4,3.7-3,11.48-8.07,15.75-11.35l5.82-4,16.64,11.12c1.37.92,5.38,3,5.39,4.11l.07,26.66L220.93,185l-.07-24.88Zm119,137.6-7.68,0-.12-44.8a29.35,29.35,0,0,0,3.12,0c1.93-.3.78-.7,2.81-.71l0-11a2.53,2.53,0,0,1-1.24-.15,2,2,0,0,1-.26-.09l-.24-.11c-.27-.09.24-.06-.77-.28a22.73,22.73,0,0,0-3.42-.06l-.13-44.08c2.86,0,2.51.2,4.89-.37l0-10.67H331.9L331.81,153,351.7,153l.41,144.69-8,0-.35-126.92c0-1.48-1.22-1.06-4.19-1.05l.35,128Zm-312.67.89-4.19,0-.4-144.7,17.45,0,.09,32.35c-9.29,0-7.33-2.24-7.3,10.34,0,2.13,3.51,1.41,7.33,1.4l.12,43.37H35.44c-1.36,0-.06.66-2.44.72l0,11c2.38,0,1.09.71,2.44.71l4.89,0,.12,44.8-9.07,0-.36-130.83-4.19,0,.36,130.82Zm223.6-156,14.66,0,0,9.95c-1.17-.31-14.26-9.32-14.69-9.91Zm-30,11.46c0-2-.36-2.45-.37-4.62v-6.75l16.05,0c-.56.79-2.79,2.16-3.78,2.91L220.85,154Zm-89-11.12,15.35,0,0,10.31L132.4,143.4a3.75,3.75,0,0,1-.57-.49ZM102.55,154l0-11,15.35-.05-7.45,5.57c-1.41,1-2.46,1.82-3.84,2.85-1.08.8-3,2.38-4,2.65Zm20.54-15.35-87.24.25v-3.55c63.2-.18,125.41,0,188.44-.19,36.63-.1,72.43-.56,109.23-.67v3.56c-29.66.08-60.57.67-90.08.05-.93,0-.71.21-2.05.21l-118.3.34ZM268.52,107l57.58-.17c.81,0,1,.25,1,1.07l.06,22.39-58.62.17L268.52,107Zm-48.2-15.51,45-.13.11,39.11-45,.13-.11-39.11ZM150.2,98.78l67-.2.09,32-67,.19-.09-32ZM43.44,108l55.84-.16.06,23.11-55.83.16L43.44,108Zm58.93-16.52c7.24.59,43.25.57,44.67-.13l.11,39.46-44.32.13-.46-39.46Zm122.12-8.18,37.34-.1v3.91l-37.34.11V83.27Zm-117.95.34,37-.1v3.91l-37,.1V83.61Zm-3.48,4.28H99.22l0,16.36-59,.16.08,26.67-7.33,0,0,12.09,7,0,0,7.11-19.54.05c-.81,0-1.05.25-1.05,1.07l.41,147.19L7,298.63c-.46,1.77-6.15,6.8-6.61,8.55l371.3-1.06c-.79-1.2-8.15-8.51-9.1-8.51l-6.63,0-.41-148.25-23.73.07,0-7.11H336l0-12.09h-5.59l-.07-25.59c0-.82-.24-1.07-1-1.07l-60.72.18,0-16.71h-3.84l0-7.82-42.23.12c-1.74,0-1,3-1,7.82-5.18,0-4.19-1.17-4.17,6.77l-67,.19,0-6.4H147c0-4.9.7-8.17-1.07-8.17L103,79.71l0,8.18Z"/><path class="cls-2" d="M22.07,336.88c7.09,0,13.6-3.05,17.44-8.22,1-1.32,2.71-3.58,3.11-5.35L44,325.87c7.63,12.31,23.39,14.3,34.15,5L79.77,329c1.17-1.29,2.93-3.68,3.34-5.48h.69c.71,3.06,4.92,7.25,7.25,9,8.27,6.15,20.18,5.19,27.62-1.66,2.09-1.92,4.62-4.56,5.26-7.43h.7c1.54,6.64,11.61,13.12,19.58,13.09,7.68,0,13.29-3.26,17.86-8.49a19.66,19.66,0,0,0,3-5.43l.72,1.4c.3.53.41.66.82,1.3A26.78,26.78,0,0,0,172.6,332c9.58,7.33,22.39,4.88,30.13-3.59a19,19,0,0,0,3.21-5.26,6.3,6.3,0,0,1,1.64,2.24l6.06,6.63a21.71,21.71,0,0,0,11.48,4.23h2.44a24.8,24.8,0,0,0,14.1-6l.74-.67.17-.19c1.67-1.79,3.63-4.2,4.2-6.73h.7c.86,3.75,4.52,7,7.3,9.27a19.12,19.12,0,0,0,10.87,4.18h2.91a23.47,23.47,0,0,0,17.73-10.29l1.67-2.57c.33,1.43,2.21,3.91,3.1,5,8.15,10.23,25.52,10.16,33.61-.1l3.42-5c.73,3.16,4.79,7.15,7.36,8.85,5.94,3.93,14.4,5.24,21.28,2.09a23.37,23.37,0,0,0,10.65-9.78c1-1.61,2.52-5.38,2.57-7.68H366.8c-.09,4.24-4,9.43-6.44,11.56l-.56.49-3.92,2.41c-4.71,1.94-11,2.29-15.69,0a19.52,19.52,0,0,1-10.25-10.91c-.75-2-.17-1.37-.13-3.41H326c.08,3.38.47,2.89-1.49,6.3-4.77,8.33-15.22,12.33-24,8.35a19.62,19.62,0,0,1-10.62-10.88c-.93-2.34-.28-1.35-.24-3.66h-3.83c.08,3.42.49,2.92-1.49,6.29a17.71,17.71,0,0,1-3.63,4.83,26.24,26.24,0,0,1-5.1,3.34,19.6,19.6,0,0,1-24.6-8,18.09,18.09,0,0,1-2.17-6.33h-3.49c0,4.55-3.81,9.35-6.41,11.59a19.4,19.4,0,0,1-20.66,2.59,18.56,18.56,0,0,1-9.32-9.71c-1.93-4.6,0-4.15-2-4.39-.49-.06-1.88,0-2.47,0,0,8.21-9.76,16-17.76,16.05-5.45,0-10.41-1.51-13.94-5l-1-1.1c-.41-.45-.63-.63-1-1.1a19.54,19.54,0,0,1-4-8.77H163.7c-1.56,3.33-.27,3.69-4,8.76-6.44,8.84-19.93,9.57-27.85,2.44-2.48-2.24-5.87-6.54-5.88-11.09h-3.49c0,4.52-3,8.31-5.81,11.13-6.43,6.36-19.18,6.44-25.66.08-2.36-2.32-5.86-6.65-5.87-11.1H81.69c0,3.86-1.83,6.29-3.74,9-6.26,8.8-20,9.15-27.72,2.22-2.32-2.08-5.86-6.87-5.88-11.09-.62,0-1.58-.06-2.15,0-2.41.14-.21,0-2.13,4.2C35.41,332,25.3,336.14,15,332.33c-5.35-2-11.35-8.46-11.51-14.6H.38C.59,326.18,10.42,336.91,22.07,336.88Z"/><path class="cls-2" d="M150.66,42.28c0-4,.53-6,2.48-8.79,1.51-2.19,3.68-3.41,5.86-4.85l8.72,4.42c5.85,3.23,5.62,6,5.63,10.86s-5.07,9.21-10.09,9.22h-2.45c-5.9,0-10.13-5-10.15-10.87Zm11-41.89h3.61c6.17.51,11.66,3.81,12.33,10.36a12,12,0,0,1-2.84,8.42c-1.28,1.4-4.83,4.54-6.7,5v.69c2,.44,6.78,3.58,8.3,4.83,4.17,3.44,4.53,10.83,1.66,16.36-8.11,15.61-33.24,12.37-33.29-3.77,0-7.16,6.28-13.48,10.78-14.67-2.41-3.47-8.74-2.68-8.77-14.27,0-7.74,7.37-12.32,14.92-13ZM153,12c0-8.93,11-11.39,16.48-5.93,3.11,3.12,3.1,9.17.35,13.09-1,1.42-4.07,4-4.59,4C164,23.18,153,19.54,153,12Z"/><path class="cls-2" d="M190.24,12.26c.71,1.28.31,13.76.32,16.27,3.66,0,2.52,0,2.94-3.27.64-5.07.12-6.29,2.92-6.67a32.45,32.45,0,0,1,4.58-.31c6.51,0,12.13-.37,18.84-.39-.17,2.06-5.51,10.32-6.59,12.28l-7.23,12C202.43,48,197,57.43,193.16,63c-1.08,1.58-1.21,1.51-.4,3,2-.16,5.78-.9,7.68,0a52.29,52.29,0,0,1,2.89-7l9.94-20.57c1.12-2.21,2.33-4.21,3.47-6.47.64-1.25,1.14-2.06,1.85-3.3s1-2.17,1.77-3.38c1.34-2.2,2.51-4.42,3.67-6.62.58-1.11,1.17-2,1.86-3.28,1.16-2,.92-1.22.91-4.21-3.11.71-33.68,1-35.59.1l-1,1.09Z"/><path class="cls-1" d="M117.52,268.81l.06,22,18.5-.05L136,270.18c0-13.21-11-14.07-16.18-8.59-1.59,1.68-2.33,4.07-2.32,7.22Z"/><path class="cls-1" d="M234.07,266.34l.07,24.17,18.14-.05c0-4.68.57-23.45-.77-26.66l-1.43-2.46c-5.81-6.61-16-2.21-16,5Z"/><path class="cls-1" d="M117.22,160.38l.06,23.1,18.15,0L135.37,160c0-11.55-18.19-12.28-18.15.41Z"/><path class="cls-1" d="M234.47,160l.07,23.11,18.14-.06-.06-23.46c0-11.72-18.18-12.11-18.15.41Z"/><path class="cls-1" d="M234.27,212.3l.06,22.75,18.15-.05-.07-23.82c0-7-9.73-11.63-15.47-5.75a9.66,9.66,0,0,0-2.67,6.87Z"/><path class="cls-1" d="M117.36,212.28l.07,23.11,18.14,0-.06-23.11a9.2,9.2,0,0,0-5.16-8.27,9.05,9.05,0,0,0-13,8.32Z"/><path class="cls-1" d="M117.07,105.63l.06,22,18.15,0-.07-24.53c0-2.94-3.92-7.46-8.05-7.45-3.07,0-5.66.08-7.88,3a9.74,9.74,0,0,0-2.21,7Z"/><path class="cls-1" d="M234.38,127.69c1.4-.81,15.45-.4,18.15-.41l-.07-23.11c0-5-4-8.88-8.05-8.86-8,0-10.12,3.86-10.09,11.76q0,10.31.06,20.62Z"/><path class="cls-2" d="M106.17,20.32l.37,3.65c1.89-.12,10.65-4.4,13.94-4.46,0,2,.37,2.9.37,4.95,0,1.82,0,3.64,0,5.46l-.62,20.83c-.4,3.12-1.73,3.38-10.11,3.4v2.08c3.11,0,4.85-.27,8-.27l11.17,0c3.39,0,5.38.25,8.72.24V54.09c-10.3,0-9.55-.46-10.29-4.28-.42-2.14.38-31.21.37-35.26-2.07-.35-1.85.13-5,1.23s-14.43,4.5-17,4.54Z"/><path class="cls-2" d="M230.64,20.42l.37,3.64c1-.07,8.27-2.91,10-3.47a12.67,12.67,0,0,1,3.94-1c0,1.9.37,2.88.37,4.93L245,40.38a80.3,80.3,0,0,1-.28,10.41c-.42,3.15-2.05,3.35-10.14,3.37v2.07c3.11,0,4.85-.27,8-.27l11.17,0c3.4,0,5.38.25,8.73.24V54.1c-10.3,0-9.55-.46-10.29-4.28-.44-2.21.38-31,.37-35.15-2.07-.36-1.85.13-5,1.22s-14.43,4.49-17,4.53Z"/><polygon class="cls-1" points="66.13 235.54 78.69 235.5 78.61 205.64 66.05 205.67 66.13 235.54 66.13 235.54"/><polygon class="cls-1" points="82.18 235.49 94.75 235.45 94.66 205.59 82.1 205.63 82.18 235.49 82.18 235.49"/><polygon class="cls-1" points="291.71 290.35 304.28 290.31 304.19 260.45 291.63 260.49 291.71 290.35 291.71 290.35"/><polygon class="cls-1" points="307.77 290.3 320.33 290.27 320.25 260.4 307.68 260.44 307.77 290.3 307.77 290.3"/><polygon class="cls-1" points="308.66 234.84 321.22 234.8 321.14 204.94 308.58 204.98 308.66 234.84 308.66 234.84"/><polygon class="cls-1" points="308.51 182.58 321.08 182.54 321 152.68 308.43 152.72 308.51 182.58 308.51 182.58"/><polygon class="cls-1" points="292.46 182.62 305.02 182.59 304.94 152.72 292.38 152.76 292.46 182.62 292.46 182.62"/><polygon class="cls-1" points="292.61 234.88 305.17 234.85 305.09 204.99 292.52 205.02 292.61 234.88 292.61 234.88"/><polygon class="cls-1" points="49.73 235.58 62.29 235.55 62.21 205.68 49.65 205.72 49.73 235.58 49.73 235.58"/><path class="cls-1" d="M195.1,182.9l12.56,0-.08-28.8c0-.82-.24-1.06-1.05-1.06L195,153l.08,29.86Z"/><path class="cls-1" d="M179.05,183l12.56,0-.08-28.79c0-.82-.24-1.07-1.05-1.07l-11.51,0,.08,29.86Z"/><path class="cls-1" d="M48.46,154.53l.08,28.8,12.56,0L61,153.43l-11.52,0c-.8,0-1,.25-1,1.07Z"/><polygon class="cls-1" points="81.34 183.23 93.55 183.2 93.47 153.33 81.26 153.37 81.34 183.23 81.34 183.23"/><polygon class="cls-1" points="65.94 291 78.15 290.96 78.07 261.1 65.85 261.13 65.94 291 65.94 291"/><polygon class="cls-1" points="65.29 183.28 77.5 183.24 77.42 153.38 65.2 153.41 65.29 183.28 65.29 183.28"/><polygon class="cls-1" points="49.53 291.05 61.75 291.01 61.66 261.15 49.45 261.18 49.53 291.05 49.53 291.05"/><polygon class="cls-1" points="81.99 290.95 94.2 290.92 94.12 261.05 81.9 261.09 81.99 290.95 81.99 290.95"/><polygon class="cls-1" points="275.31 290.39 287.53 290.36 287.44 260.5 275.23 260.53 275.31 290.39 275.31 290.39"/><polygon class="cls-1" points="276.21 234.93 288.42 234.9 288.34 205.03 276.12 205.07 276.21 234.93 276.21 234.93"/><polygon class="cls-1" points="162.65 183 174.86 182.96 174.78 153.1 162.57 153.13 162.65 183 162.65 183"/><polygon class="cls-1" points="276.06 182.67 288.27 182.64 288.19 152.77 275.98 152.81 276.06 182.67 276.06 182.67"/><polygon class="cls-1" points="178.9 127.14 191.46 127.1 191.4 106.83 178.84 106.87 178.9 127.14 178.9 127.14"/><polygon class="cls-1" points="194.95 127.09 207.51 127.05 207.45 106.79 194.89 106.82 194.95 127.09 194.95 127.09"/><path class="cls-1" d="M162.49,127.54c.43-.25.38-.36,1-.36l11.17,0-.06-20.27-12.21,0,.05,20.62Z"/><path class="cls-1" d="M48.7,114.71l0,13.15,15.36,0,0-13.15c0-.82-.25-1.07-1-1.07l-13.26,0c-.8,0-1.05.25-1,1.07Z"/><path class="cls-1" d="M79.4,114.62l0,13.16,15.36,0,0-13.15c0-.82-.25-1.07-1.05-1.07l-13.26,0c-.81,0-1,.25-1,1.07Z"/><path class="cls-1" d="M305.92,127.13l14,0c1.33,0,.12-.1,1,.36l0-14.58-15,0,0,14.23Z"/><path class="cls-1" d="M275.21,127.57c1.36-.78,11.65-.39,14-.4,1.33,0,.13-.11,1.05.36l0-14.58-15,0,0,14.58Z"/><text class="cls-3" transform="translate(12.52 382.75) scale(1.03 1)">ИнБЮМ – IBSS</text></g></g></svg>